<svg xmlns="http://www.w3.org/2000/svg" width="468" height="65" viewBox="0 0 468 65"><g><g/><g><path fill="#afafaf" d="M51.8 29.63c0 8.607-2.617 15.607-7.85 21-5.233 5.393-12.157 8.083-20.77 8.07H0V.76h21.57c8.833 0 16.05 2.577 21.65 7.73 5.72 5.333 8.58 12.38 8.58 21.14zm-4.84.17c0-8.26-2.49-14.593-7.47-19-4.76-4.127-11.327-6.193-19.7-6.2H4.59v50.27h15.2c8.493 0 15.06-2.037 19.7-6.11 4.98-4.307 7.47-10.62 7.47-18.94z"/></g><g><path fill="#afafaf" d="M89.24 58.67H56.89V.76h31.67V4.5H61.48v23.1h26.4v3.73h-26.4v23.61h27.76z"/></g><g><path fill="#afafaf" d="M146.39 58.67h-4.59V31.16h-38.72v27.51H98.5V.68h4.58v26.66h38.72V.68h4.59z"/></g><g><path fill="#afafaf" d="M199.72 4.5h-21.65v54.17h-4.58V4.5h-21.65V.68h47.88z"/></g><g><path fill="#689a9f" d="M319.39 58.67h-4.71l-9.1-20h-28.35l-9.13 20h-4.67L290.01.34h2.63zm-15.57-23.86L291.37 7.64 278.8 34.81z"/></g><g><path fill="#689a9f" d="M360.13 16.22c0 5.2-1.84 9.133-5.52 11.8-3.22 2.38-7.53 3.56-12.9 3.56h-11.64v27.09h-4.58V.76h16.56c5.427 0 9.7 1.19 12.82 3.57 3.507 2.667 5.26 6.63 5.26 11.89zm-4.75 0c0-7.82-4.783-11.727-14.35-11.72h-11v23.35h11c9.56 0 14.343-3.877 14.35-11.63z"/></g><g><path fill="#689a9f" d="M418.65 58.67h-4.59V7.37l-41.44 51.3h-3.82V.76h4.59v50.78L414.4.76h4.25z"/></g><g><path fill="#689a9f" d="M467.37 43.385a14.38 14.38 0 0 1-5.94 12.22c-3.573 2.547-8.073 3.823-13.5 3.83-7.64 0-13.897-1.417-18.77-4.25v-5.1c4.993 3.507 11.137 5.263 18.43 5.27a17.52 17.52 0 0 0 10.27-2.89 11.14 11.14 0 0 0-.84-18.68 22.54 22.54 0 0 0-11.47-2.63h-5.26v-3.82h4.41a18.62 18.62 0 0 0 10.45-2.8 10.26 10.26 0 0 0 4.92-9.09c0-7.58-4.557-11.373-13.67-11.38-4.3 0-9.223 1.53-14.77 4.59v-4.42a42.27 42.27 0 0 1 6.88-3 28.89 28.89 0 0 1 8.83-1.21c4.98 0 9.053 1.187 12.22 3.56a13.169 13.169 0 0 1 5.38 11.18 14.66 14.66 0 0 1-3 8.71 12.84 12.84 0 0 1-7.3 5.22 16 16 0 0 1 9.21 5.05 13.94 13.94 0 0 1 3.52 9.64z"/></g><g><path fill="#689a9f" d="M211.715 4.82h23l-.17.43-12.26 30.35c-.505.955-.908 1.96-1.2 3l-4.72 11.67a23.51 23.51 0 0 0 1.73 2.12l5.18-12.82.06-.21.38-.93.69-1.72a13 13 0 0 1 2.18-3 12.88 12.88 0 0 1 5.71-3.36 12.58 12.58 0 0 1 9.71 1.29 12.92 12.92 0 0 1 4.82 5l.71 1.76.37.93.06.21 5.18 12.83a25.251 25.251 0 0 0 1.72-2.12l-4.71-11.67a16.117 16.117 0 0 0-1.21-3l-12.26-30.34-.17-.43h23v31.02a23.94 23.94 0 1 1-47.87 0v-31zm38.36 9.49v8.72h2.15v-8.75zm-32.75 0v8.72h2.14v-3.57h.62c.49 0 .93.24 1.3 1.07.37.83.74 1.65 1.12 2.47h2.36l-1-2.11a9.999 9.999 0 0 0-.67-1.29 2 2 0 0 0-.73-.68 2.25 2.25 0 0 0 1.47-2.14 2.321 2.321 0 0 0-.74-1.75 2.89 2.89 0 0 0-2.06-.75h-3.85zm3.19 1.57c.81 0 1.22.34 1.22 1a.88.88 0 0 1-.37.78 1.31 1.31 0 0 1-.8.22h-1.14v-2zm23.69 14.38c-.31-.23-.65-.45-1-.66a15 15 0 0 0-11.35-1.58h-.15a15.001 15.001 0 0 0-4.68 2.19l8.61-21.31 8.61 21.32zM263.785.58v35.64a28.17 28.17 0 1 1-56.33 0v-.56V.58zm-54.13 2.13V36.22a26.035 26.035 0 0 0 52.07 0V2.71z"/></g><g><path fill="#afafaf" d="M254.06 51.35a23.66 23.66 0 0 1-36.585.348c.192.227.389.446.595.652l5.18-12.82.06-.21.38-.93.69-1.72a13.001 13.001 0 0 1 2.18-3 12.88 12.88 0 0 1 5.71-3.36 12.58 12.58 0 0 1 9.71 1.29 12.92 12.92 0 0 1 4.82 5l.71 1.76.37.93.06.21 5.18 12.83c.3-.327.59-.66.87-1zm-36.585.348zM231.81 38.7v1.6h4.39l-4.72 7.12h8.34v-1.59h-4.69l4.69-7.13zm12.39-8.44c-.31-.23-.65-.45-1-.66a15 15 0 0 0-11.35-1.58h-.15a15.001 15.001 0 0 0-4.68 2.19l8.61-21.31 8.61 21.32z"/></g><g><path fill="#fff" d="M236.73 5.25l12.26 30.34a16.12 16.12 0 0 1 1.21 3l4.74 11.66a25.251 25.251 0 0 1-1.72 2.12l-5.18-12.83-.06-.21-.37-.93-.71-1.76a12.92 12.92 0 0 0-4.82-5 12.58 12.58 0 0 0-9.71-1.29 12.88 12.88 0 0 0-5.71 3.36c-.866.89-1.6 1.901-2.18 3l-.69 1.72-.38.93-.06.21-5.19 12.82a25.24 25.24 0 0 1-1.72-2.12l4.72-11.67c.292-1.04.695-2.045 1.2-3l12.26-30.35.17-.43h1.87l.17.43zm7.51 25l-8.61-21.32-8.61 21.31a15.001 15.001 0 0 1 4.68-2.19h.15a15 15 0 0 1 11.35 1.58c.35.21.69.43 1 .66z"/></g><g><path fill="#fff" d="M239.82 38.7l-4.69 7.13h4.69v1.6h-8.34l4.72-7.13h-4.4v-1.6z"/></g><g><path fill="#fff" d="M252.22 14.282v8.75h-2.15v-8.72zm-34.94 0h3.85a2.89 2.89 0 0 1 2.06.75 2.32 2.32 0 0 1 .74 1.75 2.25 2.25 0 0 1-1.47 2.14 2 2 0 0 1 .73.68 10 10 0 0 1 .67 1.29l1 2.11h-2.36c-.38-.82-.75-1.64-1.12-2.47-.37-.83-.81-1.07-1.3-1.07h-.62v3.57h-2.14v-8.72zm2.14 1.6v2h1.14a1.31 1.31 0 0 0 .8-.22.88.88 0 0 0 .37-.78c0-.66-.41-1-1.22-1z"/></g></g></svg>